# File created by Blade
# Date/Time:  Wed Apr 08 17:19:54 2015
# Frame Rate: 120.000 fps
#------------------------------------------------------
:FULLY-SPECIFIED
:DEGREES
1328
root 9.552188 36.473047 2.745309 200.206686 -34.496886 -165.919082
Spine 8.974573 -1.006853 -7.346960
Head -13.585728 19.528512 12.193273
LeftShoulder -8.583917 14.824685 16.322009
LeftArm 12.164660 21.900473 -76.661496
LeftForeArm 23.954915 -0.000000 17.654312
LeftHand -11.266681 -0.000000 -19.935876
LeftHandThumb1 -26.253704 0.000000 33.147579
RightShoulder -42.182091 -52.099854 30.836880
RightArm 48.103523 -27.279533 67.462279
RightForeArm 23.999076 -0.000000 -0.781917
RightHand -9.262200 0.000000 10.336660
RightHandThumb1 -24.326973 -0.000000 -32.862282
LeftUpLeg -40.786229 28.353909 -15.073975
LeftLeg 18.846050 -0.000000 -0.000000
LeftFoot -19.086092 17.074871 -9.013116
LeftToeBase 3.911191 -0.000000 -0.000000
RightUpLeg 17.739992 -9.107323 -13.386637
RightLeg 140.094907 -0.000000 -0.000000
RightFoot 40.838648 5.458316 21.451269
RightToeBase 19.233863 -0.000000 -0.000000
1329
root 9.537060 36.462054 2.741139 200.155076 -34.528797 -165.868657
Spine 8.976968 -0.957964 -7.350094
Head -13.407431 19.639186 12.183543
LeftShoulder -8.654420 14.929383 16.255266
LeftArm 12.124095 21.808812 -76.701158
LeftForeArm 24.149079 -0.000000 17.478830
LeftHand -11.138983 -0.000000 -19.976054
LeftHandThumb1 -26.253704 0.000000 33.147579
RightShoulder -42.199869 -52.116218 30.868323
RightArm 47.993306 -27.191538 67.651053
RightForeArm 24.098297 -0.000000 -0.797253
RightHand -9.284750 -0.000000 10.416786
RightHandThumb1 -24.326973 -0.000000 -32.862282
LeftUpLeg -40.864726 28.219406 -14.940915
LeftLeg 19.159852 -0.000000 -0.000000
LeftFoot -19.217696 17.220190 -9.011619
LeftToeBase 3.893994 -0.000000 -0.000000
RightUpLeg 17.821484 -9.172759 -13.600864
RightLeg 140.108412 -0.000000 -0.000000
RightFoot 40.864083 5.480722 21.648890
RightToeBase 19.006680 -0.000000 -0.000000
1330
root 9.521030 36.451819 2.737069 200.111677 -34.568802 -165.825271
Spine 8.969723 -0.925524 -7.353558
Head -13.221111 19.666016 12.198842
LeftShoulder -8.708446 14.956735 16.197218
LeftArm 12.006864 21.833099 -76.741017
LeftForeArm 24.122478 -0.000000 17.349765
LeftHand -11.178251 -0.000000 -19.866356
LeftHandThumb1 -26.253704 0.000000 33.147579
RightShoulder -42.229953 -52.111703 30.922421
RightArm 47.891959 -27.089462 67.810161
RightForeArm 24.092538 -0.000000 -0.835151
RightHand -9.195568 -0.000000 10.351959
RightHandThumb1 -24.326973 -0.000000 -32.862282
LeftUpLeg -40.915284 28.071389 -14.816705
LeftLeg 19.414026 -0.000000 -0.000000
LeftFoot -19.341847 17.388273 -9.017650
LeftToeBase 3.826688 -0.000000 -0.000000
RightUpLeg 17.882251 -9.166365 -13.782007
RightLeg 140.052761 -0.000000 -0.000000
RightFoot 40.970433 5.824227 21.702238
RightToeBase 19.307204 -0.000000 -0.000000
1331
root 9.500908 36.440132 2.730845 200.057276 -34.599354 -165.785490
Spine 8.961004 -0.885262 -7.356004
Head -13.088596 19.677116 12.192912
LeftShoulder -8.778345 15.002402 16.102286
LeftArm 11.931551 21.921640 -76.712841
LeftForeArm 24.071226 -0.000000 17.271149
LeftHand -11.362602 -0.000000 -19.808916
LeftHandThumb1 -26.253704 0.000000 33.147579
RightShoulder -42.211412 -52.039969 30.917804
RightArm 47.701383 -26.941881 68.015290
RightForeArm 24.124869 -0.000000 -0.889548
RightHand -9.076526 0.000000 10.274614
RightHandThumb1 -24.326973 -0.000000 -32.862282
LeftUpLeg -40.903619 27.891294 -14.677367
LeftLeg 19.598758 -0.000000 -0.000000
LeftFoot -19.472708 17.644482 -9.004561
LeftToeBase 3.820179 -0.000000 -0.000000
RightUpLeg 17.940911 -9.113383 -13.951238
RightLeg 140.017406 -0.000000 -0.000000
RightFoot 41.139621 5.952422 21.983031
RightToeBase 19.031524 -0.000000 -0.000000
1332
root 9.480756 36.427388 2.727889 200.026487 -34.636648 -165.786673
Spine 8.951179 -0.893130 -7.389126
Head -12.911755 19.698425 12.193038
LeftShoulder -8.890957 15.139875 15.986097
LeftArm 11.971067 22.306708 -76.544619
LeftForeArm 23.715543 0.000000 17.309869
LeftHand -11.563373 -0.000000 -19.550421
LeftHandThumb1 -26.253704 0.000000 33.147579
RightShoulder -42.166516 -51.990829 30.875209
RightArm 47.573828 -26.851229 68.156725
RightForeArm 24.179196 0.000000 -0.963252
RightHand -8.986678 -0.000000 10.130611
RightHandThumb1 -24.326973 -0.000000 -32.862282
LeftUpLeg -40.862781 27.693123 -14.563443
LeftLeg 19.746772 -0.000000 -0.000000
LeftFoot -19.614056 17.850421 -9.057180
LeftToeBase 3.873277 -0.000000 -0.000000
RightUpLeg 17.971015 -9.100594 -14.155085
RightLeg 139.989476 -0.000000 -0.000000
RightFoot 41.223717 6.000391 22.046834
RightToeBase 19.148387 -0.000000 -0.000000
1333
root 9.461589 36.416327 2.723038 199.983406 -34.687186 -165.775246
Spine 8.947022 -0.929904 -7.425217
Head -12.818871 19.740187 12.209826
LeftShoulder -8.961366 15.181714 15.918741
LeftArm 11.908209 22.360549 -76.534458
LeftForeArm 23.647882 -0.000000 17.227745
LeftHand -11.611809 -0.000000 -19.475070
LeftHandThumb1 -26.253704 0.000000 33.147579
RightShoulder -42.123067 -51.963032 30.859236
RightArm 47.516156 -26.761790 68.221861
RightForeArm 24.219129 0.000000 -1.052117
RightHand -8.900200 0.000000 10.067383
RightHandThumb1 -24.326973 -0.000000 -32.862282
LeftUpLeg -40.831320 27.546582 -14.469708
LeftLeg 19.884864 -0.000000 -0.000000
LeftFoot -19.745034 17.983565 -9.111937
LeftToeBase 3.896046 -0.000000 -0.000000
RightUpLeg 17.980532 -9.054165 -14.302207
RightLeg 139.952784 -0.000000 -0.000000
RightFoot 41.285987 6.024434 22.099741
RightToeBase 19.356163 -0.000000 -0.000000
